<?xml version="1.0" encoding="UTF-8" standalone="no"?>
<!DOCTYPE svg PUBLIC "-//W3C//DTD SVG 1.1//EN"
 "http://www.w3.org/Graphics/SVG/1.1/DTD/svg11.dtd">
<!-- Generated by graphviz version 2.38.0 (20140413.2041)
 -->
<!-- Title: G Pages: 1 -->
<svg width="352pt" height="402pt"
 viewBox="0.00 0.00 352.09 402.00" xmlns="http://www.w3.org/2000/svg" xmlns:xlink="http://www.w3.org/1999/xlink">
<g id="graph0" class="graph" transform="scale(1 1) rotate(0) translate(4 398)">
<title>G</title>
<polygon fill="white" stroke="none" points="-4,4 -4,-398 348.087,-398 348.087,4 -4,4"/>
<g id="clust1" class="cluster"><title>cluster_Global</title>
<path fill="none" stroke="gray" d="M53.0433,-152C53.0433,-152 324.087,-152 324.087,-152 330.087,-152 336.087,-158 336.087,-164 336.087,-164 336.087,-374 336.087,-374 336.087,-380 330.087,-386 324.087,-386 324.087,-386 53.0433,-386 53.0433,-386 47.0433,-386 41.0433,-380 41.0433,-374 41.0433,-374 41.0433,-164 41.0433,-164 41.0433,-158 47.0433,-152 53.0433,-152"/>
<text text-anchor="middle" x="188.565" y="-373.2" font-family="Times New Roman,serif" font-size="11.00" fill="gray">Global</text>
</g>
<!-- \\XDT -->
<g id="node1" class="node"><title>\\XDT</title>
<polygon fill="none" stroke="black" points="103.043,-358 49.0433,-358 49.0433,-322 103.043,-322 103.043,-358"/>
<text text-anchor="middle" x="76.0433" y="-337.2" font-family="Courier,monospace" font-size="11.00">XDT</text>
</g>
<!-- \\XDTNodeList -->
<g id="node2" class="node"><title>\\XDTNodeList</title>
<polygon fill="none" stroke="black" points="321.587,-358 230.587,-358 230.587,-322 321.587,-322 321.587,-358"/>
<text text-anchor="middle" x="276.087" y="-337.2" font-family="Courier,monospace" font-size="11.00">XDTNodeList</text>
</g>
<!-- \\XDTNodeList&#45;&gt;\\XDT -->
<g id="edge1" class="edge"><title>\\XDTNodeList&#45;&gt;\\XDT</title>
<path fill="none" stroke="black" d="M230.147,-340C194.826,-340 146.261,-340 113.371,-340"/>
<polygon fill="none" stroke="black" points="113.28,-336.5 103.28,-340 113.28,-343.5 113.28,-336.5"/>
</g>
<!-- \\IteratorAggregate -->
<g id="node7" class="node"><title>\\IteratorAggregate</title>
<ellipse fill="none" stroke="black" cx="76.0433" cy="-126" rx="76.0865" ry="18"/>
<text text-anchor="middle" x="76.0433" y="-122.3" font-family="Times New Roman,serif" font-size="14.00" fill="gray">\IteratorAggregate</text>
</g>
<!-- \\XDTNodeList&#45;&gt;\\IteratorAggregate -->
<g id="edge2" class="edge"><title>\\XDTNodeList&#45;&gt;\\IteratorAggregate</title>
<path fill="none" stroke="black" stroke-dasharray="1,5" d="M234.507,-321.947C230.715,-319.284 227.152,-316.306 224.087,-313 169.684,-254.33 212.12,-200.894 152.087,-148 149.718,-145.913 147.161,-144.024 144.469,-142.314"/>
<polygon fill="none" stroke="black" points="145.936,-139.128 135.477,-137.438 142.599,-145.282 145.936,-139.128"/>
</g>
<!-- \\ArrayAccess -->
<g id="node8" class="node"><title>\\ArrayAccess</title>
<ellipse fill="none" stroke="black" cx="76.0433" cy="-72" rx="60.3893" ry="18"/>
<text text-anchor="middle" x="76.0433" y="-68.3" font-family="Times New Roman,serif" font-size="14.00" fill="gray">\ArrayAccess</text>
</g>
<!-- \\XDTNodeList&#45;&gt;\\ArrayAccess -->
<g id="edge3" class="edge"><title>\\XDTNodeList&#45;&gt;\\ArrayAccess</title>
<path fill="none" stroke="black" stroke-dasharray="1,5" d="M233.465,-321.664C230.014,-319.088 226.811,-316.207 224.087,-313 159.116,-236.522 222.302,-170.693 152.087,-99 147.27,-94.0818 141.493,-90.0556 135.312,-86.7604"/>
<polygon fill="none" stroke="black" points="136.572,-83.4866 126.03,-82.4368 133.617,-89.832 136.572,-83.4866"/>
</g>
<!-- \\XDTIterator -->
<g id="node3" class="node"><title>\\XDTIterator</title>
<polygon fill="none" stroke="black" points="321.587,-250 230.587,-250 230.587,-214 321.587,-214 321.587,-250"/>
<text text-anchor="middle" x="276.087" y="-229.2" font-family="Courier,monospace" font-size="11.00">XDTIterator</text>
</g>
<!-- \\Iterator -->
<g id="node9" class="node"><title>\\Iterator</title>
<ellipse fill="none" stroke="black" cx="76.0433" cy="-18" rx="39.7935" ry="18"/>
<text text-anchor="middle" x="76.0433" y="-14.3" font-family="Times New Roman,serif" font-size="14.00" fill="gray">\Iterator</text>
</g>
<!-- \\XDTIterator&#45;&gt;\\Iterator -->
<g id="edge4" class="edge"><title>\\XDTIterator&#45;&gt;\\Iterator</title>
<path fill="none" stroke="black" stroke-dasharray="1,5" d="M234.546,-213.911C230.746,-211.255 227.171,-208.288 224.087,-205 170.74,-148.123 209.321,-97.9628 152.087,-45 143.839,-37.3681 133.279,-31.8615 122.701,-27.8998"/>
<polygon fill="none" stroke="black" points="123.642,-24.524 113.048,-24.6792 121.426,-31.1642 123.642,-24.524"/>
</g>
<!-- \\XDTNS -->
<g id="node4" class="node"><title>\\XDTNS</title>
<polygon fill="none" stroke="black" points="103.043,-304 49.0433,-304 49.0433,-268 103.043,-268 103.043,-304"/>
<text text-anchor="middle" x="76.0433" y="-283.2" font-family="Courier,monospace" font-size="11.00">XDTNS</text>
</g>
<!-- \\XDTNSNodeList -->
<g id="node5" class="node"><title>\\XDTNSNodeList</title>
<polygon fill="none" stroke="black" points="328.087,-304 224.087,-304 224.087,-268 328.087,-268 328.087,-304"/>
<text text-anchor="middle" x="276.087" y="-283.2" font-family="Courier,monospace" font-size="11.00">XDTNSNodeList</text>
</g>
<!-- \\XDTNSNodeList&#45;&gt;\\XDTNS -->
<g id="edge5" class="edge"><title>\\XDTNSNodeList&#45;&gt;\\XDTNS</title>
<path fill="none" stroke="black" d="M224.085,-286C189.536,-286 144.697,-286 113.661,-286"/>
<polygon fill="none" stroke="black" points="113.299,-282.5 103.299,-286 113.299,-289.5 113.299,-282.5"/>
</g>
<!-- \\XDTNSNodeList&#45;&gt;\\IteratorAggregate -->
<g id="edge6" class="edge"><title>\\XDTNSNodeList&#45;&gt;\\IteratorAggregate</title>
<path fill="none" stroke="black" stroke-dasharray="1,5" d="M235.819,-267.921C231.644,-265.225 227.634,-262.247 224.087,-259 180.707,-219.301 199.242,-183.13 152.087,-148 149.223,-145.867 146.157,-143.94 142.958,-142.2"/>
<polygon fill="none" stroke="black" points="144.19,-138.909 133.656,-137.771 141.181,-145.23 144.19,-138.909"/>
</g>
<!-- \\XDTNSNodeList&#45;&gt;\\ArrayAccess -->
<g id="edge7" class="edge"><title>\\XDTNSNodeList&#45;&gt;\\ArrayAccess</title>
<path fill="none" stroke="black" stroke-dasharray="1,5" d="M234.546,-267.911C230.746,-265.255 227.171,-262.288 224.087,-259 170.74,-202.123 209.321,-151.963 152.087,-99 146.777,-94.0864 140.508,-90.0538 133.894,-86.7473"/>
<polygon fill="none" stroke="black" points="135.277,-83.5319 124.717,-82.6738 132.437,-89.93 135.277,-83.5319"/>
</g>
<!-- \\XDTNSIterator -->
<g id="node6" class="node"><title>\\XDTNSIterator</title>
<polygon fill="none" stroke="black" points="328.087,-196 224.087,-196 224.087,-160 328.087,-160 328.087,-196"/>
<text text-anchor="middle" x="276.087" y="-175.2" font-family="Courier,monospace" font-size="11.00">XDTNSIterator</text>
</g>
<!-- \\XDTNSIterator&#45;&gt;\\Iterator -->
<g id="edge8" class="edge"><title>\\XDTNSIterator&#45;&gt;\\Iterator</title>
<path fill="none" stroke="black" stroke-dasharray="1,5" d="M262.821,-159.938C242.769,-131.681 200.336,-76.9511 152.087,-45 142.629,-38.7374 131.54,-33.718 120.832,-29.7875"/>
<polygon fill="none" stroke="black" points="121.757,-26.4049 111.162,-26.4795 119.491,-33.0281 121.757,-26.4049"/>
</g>
</g>
</svg>
